<?xml version="1.0" encoding="UTF-8"?>
<svg xmlns="http://www.w3.org/2000/svg" viewBox="0 0 50 32">
  <defs>
    <style>
      .cls-1 {
        fill: #fff;
      }

      .cls-2 {
        fill: #339f46;
      }

      .cls-2, .cls-3 {
        fill-rule: evenodd;
      }
    </style>
  </defs>
  <g id="BG">
    <rect class="cls-1" y="0" width="50" height="32" rx="4" ry="4"/>
  </g>
  <g id="LOGOS">
    <g id="Artboard">
      <path id="Fill-1" class="cls-2" d="m20.2,4.03c.73.1,1.5.2,2.31.3l-.08.53c-.81-.1-1.58-.21-2.31-.3l.08-.52Zm2.31.3c.87.11,1.79.23,2.76.36l-.08.53c-.97-.12-1.89-.25-2.76-.36l.08-.53Zm2.76.36c.64.09,1.31.17,2.01.26l-.08.52c-.7-.09-1.37-.18-2.01-.26l.08-.53Zm2.01.26c1.55.2,3.24.42,5.08.66l-.08.53c-1.84-.24-3.53-.46-5.08-.66l.08-.52Zm5.08.66l.32.04-.07.28-.29-.06.04-.26Zm.25.32c-.24.85-.47,1.72-.72,2.62l-.58-.12c.24-.89.48-1.76.71-2.61l.58.12Zm-.72,2.62c-.24.89-.49,1.8-.75,2.74l-.58-.13c.25-.93.5-1.84.75-2.74l.58.12Zm-.75,2.74c-.27.98-.54,1.98-.82,3.01l-.58-.13c.28-1.02.55-2.03.82-3.01l.58.13Zm-.82,3.01c-.28,1.03-.57,2.08-.86,3.16l-.58-.12c.29-1.08.58-2.13.86-3.16l.58.13Zm-.86,3.16l-.09.32-.33-.15.13-.24.29.06Zm-.41.18c-1.41-.61-2.72-1.17-3.95-1.71l.26-.48c1.23.53,2.54,1.1,3.95,1.71l-.26.48Zm-3.95-1.71c-1.23-.53-2.37-1.02-3.43-1.49l.26-.48c1.07.46,2.21.95,3.44,1.48l-.26.48Zm-3.43-1.49c-1.7-.73-3.22-1.39-4.6-1.98l.26-.48c1.38.6,2.91,1.25,4.6,1.98l-.26.48Zm-4.6-1.98c-.15-.07-.31-.13-.45-.2l.26-.48c.15.06.3.13.45.19l-.26.48Zm-.45-.2l-.25-.11.1-.23.28.1-.13.24Zm-.14-.34c.19-.44.39-.88.58-1.32l.55.19c-.19.43-.39.87-.58,1.31l-.55-.19Zm.58-1.32c.48-1.09.95-2.15,1.21-2.75l.55.19c-.53,1.2-.87,1.96-1.21,2.75l-.55-.19Zm1.21-2.75c.28-.63.55-1.25.83-1.86l.55.19c-.27.61-.55,1.23-.83,1.86l-.55-.19Zm.83-1.86c.27-.62.54-1.22.8-1.81l.55.19c-.26.6-.53,1.2-.8,1.81l-.55-.19Zm.8-1.81l.09-.19.23.03-.04.26-.27-.1Z"/>
      <path id="Fill-3" class="cls-2" d="m27.88,8.77c.12.07.24.14.37.21.16.01.3-.06.4-.09.08,0,.16-.02.24-.03.18.02.29.07.48.12.2.05.41.07.61.11.13,0,.26-.02.4-.03.02,0,.04,0,.07,0,.21-.07.43-.14.65-.21.18-.12.28-.24.12-.42-.08-.03-.16-.07-.23-.1-.02,0-.04,0-.06-.01-.24-.01-.42.03-.62.05-.02-.01-.03-.02-.05-.03-.06-.04,0-.09,0-.12,0-.02,0-.04,0-.07,0-.03-.02-.04-.06-.07-.09.01-.18.03-.27.04-.95-.07-1.87-.14-2.75-.2-.08-.03-.16-.06-.24-.1-.1-.02-.19-.03-.29-.05-.05-.01-.1-.01-.16-.02-.03,0-.05-.02-.08-.03.03-.03.08-.04.15-.06.62.07,1.26.15,1.92.22.07.04.15.07.23.11.07.01.13.03.19.05.39,0,.68-.12,1.04-.13.41,0,.84.07,1.27.11.1,0,.19.02.29.03.29-.03.72-.22.6-.37-.1,0-.2,0-.3,0-.15,0-.3.01-.45.01-.1-.04-.1-.08-.12-.12-.04-.1-.08-.19-.12-.28-.02-.04-.04-.07-.06-.11.09.01.18.07.27.09.08.02.16.04.25.06.12.02.19.02.3.02.2-.1.41-.21.61-.31.11-.12.16-.22.5-.26.1,0,.21.02.31.03h.07c.11-.04.17-.09.18-.15,0-.05-.03-.09-.04-.14-.39.02-.78.03-1.16.05-.44.03-.87.07-1.32.08-.04,0-.07,0-.1-.02-.03-.03-.05-.07-.07-.12-.01-.01-.04-.03-.04-.05.01,0,.03,0,.04,0,.06,0,.12,0,.18,0,.48-.16.98-.33,1.48-.5-.01-.04-.03-.09-.04-.13-.06-.03-.12-.07-.18-.1-.98-.16-1.83.11-2.72.04-.1-.01-.21-.03-.31-.04-.65-.04-1.22.02-1.84-.01-.1-.02-.19-.03-.29-.04-.07,0-.14-.02-.2-.03-.43-.03-.79.03-1.17.05v.11c.51.01,1.03.03,1.57.04.06.02.12.04.18.06-.01.01-.03.02-.04.03-.36.03-.76.03-1.14.04-.19,0-.38,0-.57.02v1.13c.7,0,1.41.02,2.16.02-.32,0-.64,0-.96.02-.31,0-.81.01-1.02.11.06,0,.13,0,.19,0,.05,0,.1,0,.16,0,.05,0,.1,0,.15.01.07,0,.14.01.2.02.01,0,.03,0,.05.01-.09.03-.3.03-.41.04-.18,0-.36,0-.53.01v.93s.06,0,.1.01c.05,0,.11.01.16.02.1.01.2.02.3.04.59.17,1.21.35,1.85.54-.07-.05-.15-.1-.22-.14h0Zm-2.18-1.46v-.05c.06,0,.13,0,.19,0,0,0,0,0,0,0,.1.02.22.04.33.07-.17,0-.34-.01-.51-.02h0Zm0-1.62s-.07,0-.1,0h-.05c-.25-.01-.5-.02-.75-.02h-.14v.1s.03,0,.05,0c.32,0,.65.02.98.03v-.11Zm0,.3c-.29,0-.58.01-.86.03-.06,0-.11,0-.17.01v.42c.2,0,.41,0,.62,0-.04,0-.18.03-.09.05.09.02.18.04.27.06-.27,0-.54,0-.8,0v.55c.23,0,.47,0,.71,0,.11,0,.22,0,.33,0v-1.13Zm-1.03,2.12s.02,0,.03.01c.05,0,.11.02.16.03.05.01.1.02.16.03.05.01.1.02.15.03.05,0,.1.02.16.03.05.01.1.02.16.03.05,0,.11.02.16.02.02,0,.04,0,.06,0v-.93c-.07,0-.13,0-.2,0h-.1s-.03,0-.04,0c-.05-.03-.06-.05-.08-.08,0,0,0,0,0,0-.2-.01-.4-.02-.59-.03v.84Zm1.03-.85v.05c-.15,0-.29-.01-.44-.02-.02-.02-.05-.04-.07-.06h0c.08,0,.16,0,.23,0,.09,0,.18,0,.27.01h0Zm-1.03-1.59c-.07,0-.14,0-.2,0-.03,0-.07,0-.1.02,0,0,0,0,0,0,0,0,0,.01.01.02,0,0,.01.01.02.02.08.03.18.03.27.04v-.1Zm0,.36c-.08,0-.17.01-.24.02,0,0-.01,0-.02,0-.02,0-.04,0-.07.02-.01,0-.02,0-.03,0-.06-.01-.11-.04-.16-.06-.1-.01-.19-.03-.29-.05-.82-.02-1.58.02-2.29.11-.68.09-1.31.22-1.86.38-.29.11-.57.21-.86.31.04.07.04.07.13.12.03,0,.07,0,.1,0,.53-.04,1.07-.1,1.65-.12-.35.06-.7.11-1.04.17-.07.02-.14.04-.21.07-.08.02-.16.04-.24.05-.08.01-.13.01-.17.05.04.05.08.11.13.16.04.02.1.03.14.05.1.03.21-.02.3-.03.06,0,.11-.02.18-.02,0,.02-.03.03-.05.05-.01.01-.02.03-.03.04,0,0,.02.02.02.02.1.04.22.05.33.06.11,0,.23.02.34.02.12,0,.23.01.35.02.65.01,1.31,0,2,0,.03,0,.06,0,.09,0,.19.03.37.06.56.1.12.03.23.06.35.09-.53.01-1.05.02-1.55.03-.14-.02-.26-.03-.4-.05-.44,0-.86-.01-1.28-.02-.01,0-.03.02-.03.02.03,0,.06.02.09.02.34.02.69.03,1.04.05.29.02.58.04.88.05.08,0,.16,0,.24-.01.63.02,1.22.19,1.88.34v-.84c-.07,0-.15,0-.22,0-.1-.03-.18-.05-.29-.06h-.08s-.08,0-.13,0c-.24,0-.48-.02-.72-.04-.14-.01-.28-.02-.42-.03.11-.02.22-.04.33-.05,0,0,0,0,.02,0,.49,0,.99.01,1.51.02v-.55c-.25,0-.5,0-.74,0-.04-.04-.04-.08-.07-.12,0,0,.01,0,.02.01.11.02.22.02.32.02.09,0,.18,0,.28,0h.19v-.42Z"/>
      <path id="Fill-5" class="cls-2" d="m32.76,7.21s-.03-.02-.04-.02c.12-.03.25-.07.37-.1.14-.01.26-.02.38-.05.03-.01.06-.02.09-.04.04-.02.09-.04.13-.06.02,0,.04-.01.07-.01,0,0,.01.01.02.02-.08.08-.16.16-.24.24-.01,0-.03.01-.05.02-.11.03-.21.05-.32.08-.1.02-.18.04-.32.03-.03-.03-.06-.06-.09-.09"/>
      <path id="Fill-7" class="cls-2" d="m31.91,7.49c.09-.02.18-.05.27-.08,0,0,.02.02.02.02-.02.02-.04.05-.07.07-.03.02-.07.04-.15.05-.02-.02-.05-.04-.07-.07"/>
      <path id="Fill-9" class="cls-2" d="m25.58,6.45s.06,0,.09,0c.28.02.55.06.84.09.07,0,.15,0,.23.02.07,0,.14,0,.21,0,.29.01.57,0,.87,0,.05,0,.09,0,.15,0,.56.05,1.15.09,1.74.15h-.03c-.06,0-.12,0-.18,0-.82-.03-1.61-.02-2.36,0-.07,0-.13,0-.2,0h-.21c-.07,0-.13,0-.2,0-.07,0-.13,0-.2-.01-.06,0-.13,0-.19-.01-.06,0-.12,0-.18-.01-.06,0-.12-.01-.17-.02-.05,0-.1-.01-.16-.02-.06-.01-.11-.03-.17-.05-.01-.02-.02-.03,0-.05.04-.04.09-.07.14-.1"/>
      <path id="Fill-11" class="cls-2" d="m22.98,6.4c-.07,0-.13,0-.19.01-.06,0-.12,0-.18.01-.29,0-.58,0-.87,0-.31,0-.62,0-.92,0-.08,0-.15.01-.23.01-.03,0-.08,0-.11,0-.05.02-.1.04-.16.05-.03.02-.04.04-.02.07,0,0,.02.01.03.01.04,0,.06,0,.11,0,.03,0,.06,0,.09,0,.03,0,.06,0,.1,0,.2-.01.41-.01.62,0h1.08s.07,0,.11,0c.04,0,.07,0,.11,0,.24-.01.47-.03.71-.05-.1-.04-.2-.08-.29-.12"/>
      <path id="Fill-13" class="cls-2" d="m24.96,15.53s.02-.03.02-.05c.05,0,.11.02.16.03.02,0,.05,0,.06,0v.03s-.02.08-.03.12c.16.48.32.96.48,1.46.06.03.12.06.19.09.05-.02.11-.03.17-.05.39-.62.08-1.45.23-2.11.02-.07.05-.14.07-.21.09-.53-.06-1.08.08-1.58.01-.04.03-.09.04-.14.03-.33-.1-.65-.14-.97,0-.29-.02-.58-.03-.87,0-.01-.02-.02-.03-.04-.03.02-.06.05-.08.07-.05.35.06.72.04,1.1-.02.34-.11.67-.16,1.01-.02-.02-.03-.05-.05-.08-.13-.75-.06-1.52-.31-2.21,0-.02-.01-.04-.02-.06v-.02s0-.02,0-.02c.02-.03.05-.05.08-.07.02-.06.04-.13.06-.19.04-1.09-.21-2.15-.39-3.13,0-.14,0-.28-.01-.42-.01-.14-.02-.27-.19-.34-.05,0-.09.01-.14.02-.02.02-.03.04-.04.06-.02.06-.04.12-.06.18v3.44s.06,0,.08,0c.02,0,.04,0,.06,0,0,0-.01,0-.02,0-.03.07-.02.15-.02.22,0,.07,0,.14.02.2,0,.11,0,.21-.01.32-.05-.02-.08-.05-.12-.1v4.27Zm-1.02-.4c.06.02.13.03.19.05.04.01.09.02.13.03-.02.05-.09.08-.13.12-.05.09-.08.2-.12.3.08.18.16.36.24.54.15.19.27.31.31.53-.03.09-.06.18-.09.27.02.07.04.15.07.23.06.08.12.14.2.18.01,0,.03,0,.04,0,.05-.29.08-.57.13-.86.02-.33,0-.66.03-.98,0,0,0,0,0-.01v-4.27c-.05-.07-.09-.16-.1-.23-.02-.09-.04-.17-.05-.26,0-.08.03-.11.09-.17,0,0,.01,0,.02,0,.01,0,.03,0,.03,0v-3.44c-.1.33-.14.67-.21,1v-.88s-.01-.08-.02-.12c0-.07,0-.13.01-.19.01-.06.03-.09,0-.15-.08-.01-.15-.02-.23-.04-.04.02-.07.04-.11.06-.08.04-.06.15-.07.22,0,.05-.02.09-.03.14-.02-.03-.03-.04-.04-.08-.02-.02-.04-.04-.06-.06-.09.02-.14.12-.18.18-.03.07-.06.14-.1.21v3.26c.03-.07.07-.14.08-.23,0-.02,0-.04,0-.06,0-.04,0-.07-.01-.1,0-.28.01-.57.07-.83.02.09.04.18.06.28,0,0,0,0,0,.01,0,.2,0,.4-.02.6,0,.21,0,.54-.13.71-.02-.04-.04-.09-.06-.13v.31s.05,0,.07-.02c0,0,0-.01,0-.02,0,.17,0,.34,0,.52,0,.05,0,.11,0,.16,0,.05,0,.1,0,.15,0,.04,0,.09,0,.13,0,.01-.01.02-.02.03-.03-.06-.04-.12-.06-.18v3.09Zm-1.61-2.65c-.07.05-.14.1-.2.14,0,.09.07.2.12.28,0,.04.02.07.03.11,0,.12-.05.18-.1.28-.05.09-.06.2-.09.3.01.07.03.14.04.21v.05c.08.15.15.3.22.45.13.15.24.28.45.28.03-.03.07-.05.11-.08,0-.01,0-.02.01-.03.01-.12-.03-.26-.05-.38.01,0,.03,0,.04-.01.04-.02.1.04.15.06.02.01.04.02.07.03.04.01.05,0,.08,0-.01-.06-.03-.12-.05-.18.05-.56.1-1.11.14-1.65.04-.04.08-.08.11-.12.01-.06.03-.12.05-.18,0-.05,0-.12.05-.15.03.04.05.09.08.12-.06.39-.12.78-.18,1.19-.03.04-.07.07-.11.11-.02.03-.03.06-.05.09.03.48.43,1.01.03,1.41-.02.05-.03.1-.05.15-.03.12.08.28.17.39.03.05.07.09.1.13.05.05.06.05.12.07,0-.06.02-.12.03-.18,0-.1.02-.2.03-.3.07-.01.11.01.18.04.03,0,.06.02.1.03v-3.09c-.01-.06-.02-.12-.03-.17-.03-.19-.04-.37-.07-.55.02-.02.04-.04.07-.05,0,0,.02,0,.03,0v-.31s-.02-.05-.03-.07c0-.02,0-.04,0-.07,0-.04.02-.07.04-.1v-3.26s0,.01-.01.02c-.03.08-.06.16-.09.25-.14.51-.18,1.03-.21,1.57,0,.02,0,.05,0,.07-.04.13-.08.26-.14.39-.03.08-.06.15-.1.23,0-.47.01-.93.01-1.38.03-.07.05-.13.07-.2.08-.33.16-.66.24-.99,0-.01-.01-.03-.02-.05-.02.02-.03.03-.04.05-.11.25-.18.51-.24.78-.05.23-.09.46-.13.7,0,.07,0,.14,0,.21-.04.48-.23.91-.39,1.38-.01.05-.03.09-.04.13-.01.05-.02.09-.04.13,0,.04-.02.09-.03.13,0,.04-.02.09-.03.13,0,.04-.01.09-.02.13,0,.04-.01.09-.02.13,0,.05-.01.09-.02.14,0,.04,0,.09-.01.14-.17.34-.33.68-.5,1.02.05-.02.1-.06.14-.09h0Z"/>
      <path id="Fill-15" class="cls-2" d="m24.09,16.41s.02,0,.03-.01c.01.03.03.07.05.1.06.21-.01.39.06.6.01.05.03.09.05.14,0,.02.01.04,0,.06,0,0-.01,0-.01,0-.01,0-.03-.02-.04-.03-.1-.11-.19-.25-.22-.37-.02-.09-.03-.18-.04-.27-.01-.08-.03-.18.03-.24.03,0,.07.02.1.03"/>
      <path id="Fill-17" class="cls-2" d="m23.85,15.68c.03.09.06.18.1.27-.01,0-.03,0-.04-.02-.03-.04-.07-.08-.09-.11-.04-.06-.06-.1-.06-.16.03,0,.06.01.1.02"/>
      <path id="Fill-19" class="cls-2" d="m25.24,11.9s0,.04,0,.07c-.02.19-.06.38-.08.57,0,.05,0,.1-.01.15,0,.05,0,.1,0,.14,0,.19.02.38.02.56,0,.05,0,.11,0,.16-.07.38-.13.76-.2,1.15,0,0,0-.01,0-.02,0-.04,0-.08.01-.12.05-.56.03-1.11-.04-1.66-.01-.05-.01-.1-.01-.15-.02-.31,0-.61.04-.91.07-.17.32-.04.29.04"/>
      <path id="Fill-21" class="cls-2" d="m25.24,10.04s-.02-.09-.02-.15c0-.04,0-.09-.01-.13,0-.04,0-.09,0-.13v-.12c0-.13.03-.26.04-.38.03-.28.06-.55.09-.82v-.08c-.05-.07-.11-.13-.16-.2-.01,0-.02.01-.03.02-.01.02-.01.04-.02.07,0,.02,0,.05,0,.07,0,.03,0,.05,0,.08-.02.15-.05.29-.08.44,0,.02,0,.05-.01.07-.03.26-.06.53-.07.8,0,.03,0,.05,0,.08.02.18.05.36.08.54.06-.05.13-.1.2-.15"/>
      <path id="Fill-23" class="cls-2" d="m19.99,19.47v.83h-1.97v2.3c0,.43.17.64.54.64.4,0,.6-.25.6-.77v-.18h1.04v.22c0,.21,0,.4-.02.55-.07.7-.65,1.05-1.75,1.05s-1.65-.45-1.65-1.35v-2.46h-.66v-.83h.66v-1.02h1.24v1.02h1.97Zm.75,0h1.22l-.05.77h.03c.24-.55.77-.83,1.61-.83,1.21,0,1.82.51,1.82,1.51v3.12h-1.23v-2.93l-.03-.32c-.06-.34-.36-.52-.9-.52-.83,0-1.24.35-1.24,1.05v2.72h-1.23v-4.58Zm5.42,0h1.23l-.03.7h.03c.25-.5.77-.76,1.56-.76.93,0,1.45.28,1.55.85h.02c.24-.57.77-.85,1.58-.85,1.19,0,1.78.53,1.78,1.6v3.03h-1.23v-2.8c0-.65-.29-.97-.9-.97-.75,0-1.12.36-1.12,1.09v2.68h-1.23v-2.84c0-.38-.06-.63-.17-.75-.11-.12-.35-.18-.72-.18-.75,0-1.13.37-1.13,1.11v2.65h-1.23v-4.58Z"/>
      <polygon id="Fill-25" class="cls-3" points="20.44 24.98 20.44 27.33 19.91 27.33 19.91 25.86 19.24 26.77 19.19 26.77 18.52 25.86 18.52 27.33 17.99 27.33 17.99 24.98 18.44 24.98 19.22 26.03 19.99 24.98 20.44 24.98"/>
      <path id="Fill-27" class="cls-3" d="m22.24,26.51c0-.26-.16-.43-.43-.43-.16,0-.29.06-.39.21v.45c.1.14.24.21.39.21.27,0,.43-.18.43-.43m.51,0c0,.51-.33.86-.79.86-.24,0-.42-.1-.54-.25v.87h-.49v-2.31h.49v.2c.12-.15.31-.25.54-.25.46,0,.79.35.79.86"/>
      <path id="Fill-29" class="cls-3" d="m24.31,26.32c-.1-.14-.24-.21-.39-.21-.27,0-.43.17-.43.42s.16.42.43.42c.16,0,.29-.07.39-.21v-.44Zm.49-.58v1.6h-.49v-.2c-.12.15-.31.24-.54.24-.46,0-.79-.35-.79-.84s.33-.84.79-.84c.24,0,.42.09.54.24v-.2h.49Z"/>
      <path id="Fill-31" class="cls-3" d="m27.74,26.32v1.01h-.49v-.97c0-.13-.08-.24-.25-.24-.13,0-.23.05-.31.15v1.05h-.49v-.97c0-.12-.08-.23-.25-.23-.13,0-.24.07-.32.19v1.02h-.49v-1.59h.49v.18c.12-.14.28-.22.48-.22s.36.08.46.21c.15-.15.33-.21.53-.21.38,0,.64.25.64.63"/>
      <path id="Fill-33" class="cls-3" d="m29.48,26.51c0-.26-.16-.44-.43-.44-.16,0-.29.06-.39.21v.45c.1.14.24.21.39.21.27,0,.43-.18.43-.44m.51,0c0,.51-.33.87-.79.87-.24,0-.42-.1-.54-.25v.21h-.49v-2.36h.49v.91c.12-.15.31-.25.54-.25.46,0,.79.36.79.87"/>
      <path id="Fill-35" class="cls-3" d="m31.51,26.32c-.1-.14-.24-.21-.39-.21-.27,0-.43.17-.43.42s.16.42.43.42c.16,0,.29-.07.39-.21v-.44Zm.49-.58v1.6h-.49v-.2c-.12.15-.31.24-.54.24-.46,0-.79-.35-.79-.84s.33-.84.79-.84c.24,0,.42.09.54.24v-.2h.49Z"/>
    </g>
  </g>
</svg>